<?xml version="1.0" encoding="utf-8"?>
<!-- Generator: Adobe Illustrator 19.1.0, SVG Export Plug-In . SVG Version: 6.00 Build 0)  -->
<svg version="1.1" id="Medal" xmlns="http://www.w3.org/2000/svg" xmlns:xlink="http://www.w3.org/1999/xlink" x="0px" y="0px"
	 viewBox="-295 387 20 20" style="enable-background:new -295 387 20 20;" xml:space="preserve">
<style type="text/css">
	.st0{fill:#FFFFFF;}
</style>
<path class="st0" d="M-285,397c0.5,0,1,0.1,1.5,0.3l-6.1-9.1c-0.1-0.1-0.2-0.1-0.3-0.1h-3.6c-0.1,0-0.2,0.1-0.1,0.2l6.2,9.3
	C-286.6,397.2-285.8,397-285,397z M-276.6,388h-3.6c-0.1,0-0.2,0.1-0.3,0.1l-3.8,5.7l2,3l5.8-8.6C-276.4,388.1-276.5,388-276.6,388z
	 M-285,398c-2.2,0-4,1.8-4,4s1.8,4,4,4c2.2,0,4-1.8,4-4S-282.8,398-285,398z M-282.9,402.1c0.1,0.1,0.1,0.2,0,0.2
	c-0.1,0-0.1,0.2,0,0.2c0,0.1,0,0.2-0.1,0.2c-0.1,0-0.1,0.1-0.1,0.2c0,0.1,0,0.2-0.1,0.2c-0.1,0-0.1,0.1-0.1,0.2
	c0,0.1-0.1,0.2-0.1,0.2s-0.2,0.1-0.2,0.2c0,0.1-0.1,0.1-0.2,0.1s-0.2,0-0.2,0.1s-0.1,0.1-0.2,0.1s-0.2,0-0.2,0.1
	c0,0.1-0.1,0.1-0.2,0c-0.1-0.1-0.2,0-0.2,0s-0.2,0.1-0.2,0c-0.1-0.1-0.2-0.1-0.2,0c-0.1,0.1-0.2,0-0.2,0c0-0.1-0.1-0.1-0.2-0.1
	c-0.1,0-0.2,0-0.2-0.1c0-0.1-0.1-0.1-0.2-0.1c-0.1,0-0.2,0-0.2-0.1c0-0.1-0.1-0.2-0.2-0.2c-0.1,0-0.2-0.1-0.1-0.2
	c0-0.1,0-0.2-0.1-0.2s-0.1-0.1-0.1-0.2c0-0.1,0-0.2-0.1-0.2c-0.1,0-0.1-0.1-0.1-0.2c0-0.1,0-0.2,0-0.2c-0.1-0.1-0.1-0.1,0-0.2
	c0.1-0.1,0.1-0.2,0-0.2s-0.1-0.2,0-0.2c0.1-0.1,0.1-0.2,0-0.2c0-0.1,0-0.2,0.1-0.2c0.1,0,0.1-0.1,0.1-0.2c0-0.1,0-0.2,0.1-0.2
	c0.1,0,0.1-0.1,0.1-0.2c0-0.1,0.1-0.2,0.1-0.2c0.1,0,0.2-0.1,0.2-0.2c0-0.1,0.1-0.1,0.2-0.1s0.2,0,0.2-0.1s0.1-0.1,0.2-0.1
	s0.2,0,0.2-0.1c0-0.1,0.1-0.1,0.2,0c0.1,0.1,0.2,0,0.2,0s0.2-0.1,0.2,0c0.1,0.1,0.2,0.1,0.2,0c0.1-0.1,0.2,0,0.2,0s0.1,0.1,0.2,0.1
	c0.1,0,0.2,0,0.2,0.1c0,0.1,0.1,0.1,0.2,0.1c0.1,0,0.2,0,0.2,0.1c0,0.1,0.1,0.2,0.2,0.2c0.1,0,0.2,0.1,0.1,0.2
	c0,0.1,0.1,0.2,0.1,0.2c0.1,0,0.1,0.1,0.1,0.2c0,0.1,0,0.2,0.1,0.2s0.1,0.1,0.1,0.2c0,0.1,0,0.2,0,0.2c0.1,0,0.1,0.1,0,0.2
	S-283,402.1-282.9,402.1z"/>
</svg>
